<svg width="85" height="17" viewBox="0 0 85 17" fill="none" xmlns="http://www.w3.org/2000/svg">
<path d="M10.332 14.866C9.856 15.272 9.254 15.594 8.526 15.832C7.812 16.056 7.07 16.168 6.3 16.168C5.18 16.168 4.2 15.951 3.36 15.517C2.534 15.083 1.89 14.474 1.428 13.69C0.98 12.906 0.756 11.989 0.756 10.939C0.756 9.791 0.987 8.776 1.449 7.894C1.925 7.012 2.569 6.326 3.381 5.836C4.193 5.332 5.11 5.08 6.132 5.08C7.182 5.08 8.078 5.311 8.82 5.773C9.576 6.221 10.129 6.886 10.479 7.768C10.829 8.636 10.927 9.693 10.773 10.939H3.528L3.675 9.364H9.03L8.19 9.679C8.246 8.909 8.092 8.321 7.728 7.915C7.378 7.509 6.888 7.306 6.258 7.306C5.474 7.306 4.865 7.593 4.431 8.167C4.011 8.727 3.801 9.637 3.801 10.897C3.801 11.849 4.025 12.57 4.473 13.06C4.935 13.55 5.614 13.795 6.51 13.795C7.098 13.795 7.651 13.711 8.169 13.543C8.687 13.361 9.184 13.088 9.66 12.724L10.332 14.866ZM19.7569 16.189C18.2589 16.189 16.9709 15.902 15.8929 15.328C14.8289 14.74 14.0099 13.914 13.4359 12.85C12.8619 11.786 12.5749 10.519 12.5749 9.049C12.5749 7.383 12.8969 5.941 13.5409 4.723C14.1849 3.491 15.1019 2.539 16.2919 1.867C17.4819 1.195 18.8819 0.859 20.4919 0.859C21.6119 0.859 22.6269 1.006 23.5369 1.3C24.4469 1.594 25.2379 2.021 25.9099 2.581L24.6709 4.933C24.0409 4.429 23.4109 4.058 22.7809 3.82C22.1509 3.568 21.4019 3.449 20.5339 3.463C19.5399 3.491 18.6929 3.729 17.9929 4.177C17.3069 4.625 16.7819 5.262 16.4179 6.088C16.0679 6.914 15.8929 7.901 15.8929 9.049C15.8929 10.505 16.2429 11.639 16.9429 12.451C17.6429 13.263 18.7209 13.669 20.1769 13.669C20.6809 13.669 21.1919 13.62 21.7099 13.522C22.2279 13.41 22.7459 13.263 23.2639 13.081L22.4659 14.194L22.7809 10.036H19.8409L20.0299 7.747H25.9099L25.3639 15.034C24.8739 15.286 24.3279 15.496 23.7259 15.664C23.1379 15.832 22.5009 15.958 21.8149 16.042C21.1429 16.14 20.4569 16.189 19.7569 16.189ZM27.8654 16L29.0414 1.048H39.3524L39.1424 3.589H32.0654L31.2674 13.459H38.3654L38.1554 16H27.8654ZM31.2254 9.679L31.4144 7.117H38.4494L38.2184 9.679H31.2254ZM40.2266 16L41.4026 1.048H43.8176L51.1256 11.338L50.4116 11.737L51.2726 1.048H54.3386L53.1626 16H50.7056L43.4606 5.752L44.1536 5.311L43.2716 16H40.2266ZM63.1747 16.189C61.7187 16.189 60.4587 15.902 59.3947 15.328C58.3447 14.74 57.5327 13.914 56.9587 12.85C56.3987 11.772 56.1187 10.498 56.1187 9.028C56.1187 7.376 56.4337 5.941 57.0637 4.723C57.7077 3.491 58.6107 2.539 59.7727 1.867C60.9487 1.195 62.3277 0.859 63.9097 0.859C64.9317 0.859 65.8837 1.006 66.7657 1.3C67.6617 1.594 68.4457 2.021 69.1177 2.581L67.8787 4.933C67.2627 4.429 66.6467 4.065 66.0307 3.841C65.4147 3.603 64.7497 3.484 64.0357 3.484C63.0557 3.484 62.2227 3.708 61.5367 4.156C60.8647 4.604 60.3467 5.248 59.9827 6.088C59.6187 6.914 59.4367 7.901 59.4367 9.049C59.4367 10.505 59.7657 11.625 60.4237 12.409C61.0957 13.179 62.0547 13.564 63.3007 13.564C63.9307 13.564 64.5747 13.452 65.2327 13.228C65.8907 12.99 66.5837 12.619 67.3117 12.115L68.1727 14.467C67.6267 15.013 66.8987 15.44 65.9887 15.748C65.0927 16.042 64.1547 16.189 63.1747 16.189ZM73.5241 16L74.0281 9.28L74.5951 11.17L68.5261 1.048H72.1801L76.0861 8.125H75.3721L80.3701 1.048H84.1501L76.5271 11.17L77.3251 9.28L76.8001 16H73.5241Z" fill="#3C227C"/>
</svg>
