<svg width="293" height="122" viewBox="0 0 293 122" fill="none" xmlns="http://www.w3.org/2000/svg">
<path d="M13.1008 39.2999C11.3822 38.776 9.78461 38.1353 8.30798 37.3778C6.84087 36.5891 5.51037 35.6884 4.31647 34.6755C3.15382 33.6723 2.18551 32.5916 1.41153 31.4336L4.77001 27.6422C6.07635 29.4064 7.51872 30.8364 9.09711 31.9323C10.6755 33.0282 12.5115 33.8952 14.605 34.5334C16.9173 35.2382 18.8222 35.3749 20.3198 34.9435C21.8486 34.5216 22.8368 33.5764 23.2845 32.1077C23.5512 31.2328 23.489 30.4284 23.098 29.6945C22.7166 28.9294 22.0253 28.1722 21.0242 27.4231C20.0231 26.674 18.7517 25.8595 17.2099 24.9798C15.3556 24.0047 13.7595 23.023 12.4216 22.0346C11.0932 21.0149 10.0433 19.9777 9.27203 18.923C8.50072 17.8683 8.00664 16.7443 7.78976 15.5513C7.61366 14.3365 7.74469 13.0104 8.18285 11.573C8.78293 9.60443 9.84754 8.01652 11.3767 6.80926C12.9058 5.60201 14.752 4.86706 16.9152 4.60442C19.1193 4.32006 21.518 4.57317 24.1116 5.36375C25.6739 5.84001 27.1418 6.45821 28.5151 7.21836C29.9197 7.98804 31.1565 8.86023 32.2254 9.83493C33.3039 10.7784 34.1676 11.8101 34.8166 12.93L31.4112 16.7071C30.2828 15.0313 28.9919 13.6645 27.5385 12.6067C26.0947 11.5177 24.4822 10.7018 22.7011 10.1588C20.545 9.50162 18.7087 9.41996 17.1921 9.91387C15.6755 10.4078 14.6791 11.4359 14.2029 12.9983C13.9266 13.9044 13.948 14.7306 14.267 15.4767C14.6172 16.2323 15.2616 16.9751 16.2002 17.7052C17.17 18.4448 18.4367 19.2749 20.0002 20.1955C21.8137 21.1922 23.3894 22.1848 24.7273 23.1732C26.0965 24.1711 27.198 25.207 28.0318 26.2808C28.8751 27.3233 29.4052 28.4411 29.6221 29.6342C29.8798 30.8056 29.7943 32.0943 29.3656 33.5004C28.756 35.5003 27.6914 37.0882 26.1718 38.2642C24.6617 39.4089 22.783 40.0827 20.5355 40.2856C18.3288 40.4667 15.8506 40.1381 13.1008 39.2999ZM40.3288 47.5486C37.4228 46.6628 35.4784 45.1992 34.4956 43.1579C33.5535 41.0949 33.5778 38.4386 34.5684 35.1889L38.9262 20.8933L44.785 22.6793L40.413 37.0217C39.8891 38.7403 39.8627 40.1153 40.3337 41.1468C40.8047 42.1784 41.7589 42.9132 43.1963 43.3513C44.9149 43.8752 46.4612 43.7319 47.8353 42.9213C49.2093 42.1107 50.1821 40.768 50.7536 38.8932L54.7685 25.7225L60.6742 27.5228L53.4589 51.1925L47.7407 49.4494L49.2266 44.5748L49.8502 44.7137C48.6389 46.2228 47.2077 47.2208 45.5566 47.7079C43.915 48.1637 42.1724 48.1106 40.3288 47.5486ZM59.9181 53.1615L70.4338 18.6646L76.2926 20.4506L71.2777 36.9022L70.9764 36.042C71.9907 34.507 73.3846 33.4634 75.158 32.9112C76.9314 32.359 78.818 32.3877 80.8178 32.9973C82.9114 33.6355 84.587 34.6926 85.8445 36.1688C87.1021 37.645 87.9029 39.4429 88.2471 41.5628C88.5913 43.6826 88.3872 45.9767 87.6347 48.4453C86.8822 50.9138 85.7671 52.9473 84.2894 54.5459C82.8118 56.1445 81.119 57.2165 79.211 57.7619C77.3439 58.2856 75.3791 58.2331 73.3168 57.6044C71.317 56.9948 69.7257 55.9974 68.5428 54.6123C67.3695 53.196 66.7995 51.5367 66.833 49.6345L67.6057 48.948L65.7769 54.9474L59.9181 53.1615ZM73.1886 52.6476C75.1259 53.2382 76.8353 53.0079 78.3168 51.9569C79.7983 50.9059 80.9201 49.1305 81.6821 46.6307C82.4251 44.1934 82.4654 42.1567 81.803 40.5205C81.1502 38.853 79.8551 37.724 77.9178 37.1334C75.918 36.5238 74.1821 36.7289 72.7101 37.7487C71.2694 38.7779 70.1727 40.5269 69.4203 42.9954C68.6583 45.4952 68.588 47.574 69.2096 49.232C69.8624 50.8995 71.1888 52.038 73.1886 52.6476ZM97.7926 65.0654C93.4805 63.7509 90.3746 61.7284 88.475 58.9978L91.3727 55.3733C92.3369 56.6917 93.4818 57.8091 94.8075 58.7255C96.1333 59.6419 97.593 60.343 99.1866 60.8287C100.624 61.2669 101.789 61.3659 102.682 61.1258C103.575 60.8857 104.15 60.3438 104.407 59.5002C104.626 58.7815 104.532 58.1381 104.124 57.5699C103.727 56.9705 102.935 56.3193 101.749 55.6163L98.0831 53.5256C96.0699 52.3997 94.6832 51.1232 93.9229 49.6962C93.2034 48.2474 93.1056 46.6638 93.6295 44.9452C94.0676 43.5078 94.8596 42.3661 96.0054 41.5201C97.1608 40.6429 98.568 40.1156 100.227 39.9384C101.886 39.7611 103.684 39.9677 105.622 40.5583C107.309 41.0727 108.853 41.8336 110.253 42.841C111.663 43.8172 112.799 44.9659 113.66 46.287L110.744 49.8035C109.832 48.5354 108.819 47.4921 107.702 46.6736C106.617 45.8647 105.465 45.2745 104.246 44.903C102.903 44.4934 101.78 44.4243 100.877 44.6956C99.9749 44.967 99.3903 45.5401 99.1236 46.415C98.9141 47.1025 98.9661 47.716 99.2798 48.2556C99.6246 48.8046 100.321 49.3756 101.37 49.9685L105.054 52.1672C107.245 53.3816 108.701 54.7131 109.42 56.1619C110.18 57.5889 110.284 59.2086 109.732 61.0209C109.075 63.177 107.676 64.6289 105.535 65.3766C103.405 66.0931 100.824 65.9893 97.7926 65.0654ZM123.481 72.8959C121.012 72.1434 119.019 71.0066 117.502 69.4855C116.026 67.9426 115.08 66.1174 114.663 64.0098C114.288 61.8805 114.477 59.5815 115.229 57.113C115.991 54.6132 117.158 52.5783 118.729 51.0083C120.301 49.4383 122.165 48.4187 124.323 47.9495C126.481 47.4803 128.794 47.622 131.263 48.3745C132.919 48.8793 134.447 49.6355 135.848 50.6429C137.279 51.6599 138.352 52.7895 139.066 54.0317L136.122 57.642C135.369 56.5248 134.493 55.5916 133.492 54.8425C132.5 54.0621 131.442 53.5005 130.317 53.1576C128.255 52.5289 126.414 52.685 124.795 53.6259C123.208 54.5764 122.029 56.3171 121.257 58.8481C120.495 61.3479 120.508 63.4349 121.295 65.1092C122.082 66.7836 123.538 67.9446 125.663 68.5923C126.757 68.9257 127.928 69.0607 129.177 68.9974C130.435 68.9029 131.693 68.5861 132.95 68.0473L133.38 72.6863C132.063 73.3093 130.511 73.6388 128.724 73.6747C126.978 73.6889 125.23 73.4293 123.481 72.8959ZM136.657 76.5539L141.829 59.5867C142.162 58.493 142.469 57.3742 142.75 56.2303C143.071 55.0646 143.32 53.9111 143.497 52.7699L149.028 54.4558L147.827 60.749L147.271 60.2209C148.315 58.2512 149.718 56.9542 151.479 56.3299C153.24 55.7057 155.027 55.6698 156.839 56.2223C157.308 56.3651 157.736 56.5297 158.123 56.716C158.51 56.9024 158.841 57.1056 159.115 57.3259L157.393 62.6406C156.548 61.9391 155.579 61.4216 154.485 61.0883C153.079 60.6596 151.837 60.5884 150.76 60.8747C149.713 61.1704 148.808 61.7312 148.044 62.5569C147.321 63.361 146.778 64.3567 146.416 65.5441L142.516 78.3398L136.657 76.5539ZM155.203 82.2073L162.418 58.5376L168.277 60.3235L161.062 83.9932L155.203 82.2073ZM165.409 47.7184L171.924 49.7044L170.166 55.4695L163.651 53.4835L165.409 47.7184ZM167.57 85.977L178.085 51.4802L183.944 53.2661L178.929 69.7178L178.628 68.8575C179.642 67.3226 181.036 66.279 182.809 65.7268C184.583 65.1746 186.469 65.2032 188.469 65.8128C190.563 66.451 192.238 67.5082 193.496 68.9844C194.754 70.4605 195.554 72.2585 195.899 74.3783C196.243 76.4981 196.039 78.7923 195.286 81.2608C194.534 83.7294 193.419 85.7629 191.941 87.3615C190.463 88.9601 188.77 90.0321 186.862 90.5775C184.995 91.1011 183.031 91.0486 180.968 90.42C178.968 89.8104 177.377 88.813 176.194 87.4279C175.021 86.0116 174.451 84.3523 174.484 82.45L175.257 81.7635L173.428 87.763L167.57 85.977ZM180.84 85.4632C182.777 86.0537 184.487 85.8235 185.968 84.7725C187.45 83.7215 188.572 81.9461 189.334 79.4463C190.077 77.009 190.117 74.9723 189.454 73.336C188.802 71.6685 187.507 70.5395 185.569 69.949C183.569 69.3394 181.834 69.5444 180.362 70.5642C178.921 71.5935 177.824 73.3424 177.072 75.811C176.31 78.3107 176.24 80.3896 176.861 82.0475C177.514 83.715 178.84 84.8536 180.84 85.4632ZM217.968 98.4715C216.558 99.066 214.943 99.3764 213.125 99.4028C211.348 99.4074 209.616 99.1526 207.928 98.6382C205.366 97.8572 203.295 96.6965 201.716 95.1564C200.167 93.6257 199.174 91.7862 198.736 89.6378C198.298 87.4895 198.465 85.1498 199.237 82.6187C199.98 80.1815 201.116 78.1887 202.647 76.6404C204.187 75.0608 205.974 74.0174 208.007 73.5101C210.049 72.9716 212.195 73.0453 214.445 73.7311C216.632 74.3978 218.359 75.4537 219.627 76.8986C220.903 78.3122 221.692 80.0382 221.993 82.0765C222.325 84.1243 222.119 86.3668 221.376 88.8041L221.105 89.6946L204.278 84.5653L205.282 81.4393L218.594 85.497L216.514 86.6048C217.241 84.3333 217.316 82.461 216.741 80.9878C216.197 79.5242 215.05 78.5257 213.3 77.9923C211.425 77.4208 209.767 77.6497 208.326 78.679C206.895 79.677 205.803 81.4103 205.051 83.8788C204.194 86.6911 204.138 88.9452 204.885 90.6413C205.641 92.3061 207.191 93.4957 209.534 94.2101C210.815 94.6006 212.127 94.7785 213.47 94.7438C214.853 94.6873 216.2 94.4148 217.51 93.9262L217.968 98.4715ZM244.226 109.703C241.32 108.817 239.376 107.354 238.393 105.312C237.451 103.249 237.475 100.593 238.466 97.3433L242.824 83.0477L248.682 84.8337L244.31 99.1761C243.787 100.895 243.76 102.27 244.231 103.301C244.702 104.333 245.656 105.068 247.094 105.506C248.812 106.03 250.359 105.886 251.733 105.076C253.107 104.265 254.08 102.922 254.651 101.048L258.666 87.8769L264.572 89.6772L257.356 113.347L251.638 111.604L253.124 106.729L253.748 106.868C252.536 108.377 251.105 109.375 249.454 109.862C247.812 110.318 246.07 110.265 244.226 109.703ZM272.433 118.301C268.121 116.987 265.015 114.964 263.116 112.234L266.014 108.609C266.978 109.928 268.123 111.045 269.448 111.962C270.774 112.878 272.234 113.579 273.827 114.065C275.265 114.503 276.43 114.602 277.323 114.362C278.215 114.122 278.79 113.58 279.048 112.736C279.267 112.018 279.173 111.374 278.765 110.806C278.367 110.207 277.575 109.555 276.39 108.852L272.724 106.762C270.711 105.636 269.324 104.359 268.564 102.932C267.844 101.483 267.746 99.8998 268.27 98.1812C268.708 96.7438 269.5 95.6022 270.646 94.7562C271.802 93.8789 273.209 93.3517 274.868 93.1744C276.527 92.9971 278.325 93.2038 280.263 93.7943C281.95 94.3087 283.494 95.0696 284.894 96.0771C286.304 97.0533 287.44 98.2019 288.3 99.523L285.384 103.04C284.473 101.771 283.459 100.728 282.343 99.9097C281.258 99.1007 280.106 98.5105 278.887 98.139C277.543 97.7294 276.42 97.6603 275.518 97.9317C274.616 98.203 274.031 98.7762 273.764 99.6511C273.555 100.339 273.607 100.952 273.921 101.492C274.265 102.041 274.962 102.612 276.011 103.205L279.695 105.403C281.886 106.618 283.341 107.949 284.061 109.398C284.821 110.825 284.925 112.445 284.373 114.257C283.715 116.413 282.317 117.865 280.176 118.613C278.045 119.329 275.464 119.225 272.433 118.301Z" fill="#FFA3AB"/>
</svg>
